<?xml version="1.0" encoding="utf-8"?>
<!-- Generator: Adobe Illustrator 25.0.0, SVG Export Plug-In . SVG Version: 6.00 Build 0)  -->
<svg version="1.1" xmlns="http://www.w3.org/2000/svg" xmlns:xlink="http://www.w3.org/1999/xlink" x="0px" y="0px"
	 viewBox="0 0 1133.9 1133.9" style="enable-background:new 0 0 1133.9 1133.9;" xml:space="preserve">
<style type="text/css">
	.st0{fill:#11457E;}
	.st1{fill:#D7141A;}
	.st2{fill:#FFFFFF;}
</style>
<g id="Vrstva_3">
	<path class="st0" d="M570.2,600.1V1066l-183.5-31.1l-118.5-75.1l-84.8,32.7L34.4,732l70-60.3l-2-174.6
		c19.3-44.3,38.6-88.6,57.9-132.9C296.9,442.8,433.5,521.4,570.2,600.1z"/>
</g>
<g id="Vrstva_4">
	<polyline class="st1" points="567.3,598.6 567.3,1064.5 741.3,1040.5 862.8,962.9 951.7,987.4 1098.7,735.1 1035.4,676.9 
		1037.4,537 1018,444.1 965.1,368.8 567.3,598.6 	"/>
	<polyline class="st2" points="567.3,598.6 169.4,369.1 193.4,304.4 252.3,238.6 335.1,184.2 403.2,148.2 417.8,61.6 718.8,61.6 
		733.4,152 830.1,199.5 882.7,242.4 940.9,304.4 965.1,368.8 567.3,598.6 	"/>
</g>
<g id="Vrstva_2">
	<g transform="translate(0.000000,2400.000000) scale(0.100000,-0.100000)">
		<path d="M4077.5,23467.4c-1.5-7.9-36.1-206.4-77.2-442c-40.6-235.6-75.7-431.1-77.7-434.6c-2.5-3.5-36.1-19.3-75.7-35.1
			c-766.7-309.4-1457.2-824.1-1973-1470.6c-534.6-670.2-884.5-1469.1-1009.2-2301.6c-6.9-47.5-15.3-92.1-17.8-98.5
			c-9.9-24.3-29.7-214.3-39.1-378.7c-6.4-113.8-6.4-399.9,0-520.2c5.9-107.9,15.3-208.9,30.7-338.1l10.9-91.1l-19.8-18.3
			c-41.1-38.6-96-89.1-150.5-139.1c-31.2-28.7-72.3-66.3-91.6-84.1c-41.6-39.1-49-45.5-258.4-239.6
			c-90.6-83.2-165.3-153.4-166.8-155.9c-1.5-2,60.4-112.9,137.1-246c76.7-133.1,436.1-754.8,797.9-1381.5
			c361.8-627.1,660.3-1139.9,663.3-1139.9s42.1,13.4,87.1,30.2c44.5,16.3,141.6,52,214.8,78.7c435.6,159.4,542.5,198,546.4,198
			c3,0,17.8-10.9,34.2-24.3c90.6-75.7,312.8-232.1,458.8-323.2c247.5-154.4,569.7-311.8,871.1-424.7
			c719.7-269.8,1516.1-364.8,2279.3-272.2c407.4,49.5,818.7,152.5,1185.5,297c49,19.3,93.5,35.6,99,36.6
			c26.7,4.5,185.1,76.7,341.5,155.4c253.9,128.7,476.2,266.3,709.3,440l95.5,70.8l25.7-7.9c14.4-4.5,32.7-9.9,40.6-12.9
			c23.3-7.4,249-77.7,282.1-87.6c57.4-17.3,321.7-100,334.1-104.4c6.9-2.5,35.6-11.4,64.3-19.8c28.7-8.9,72.8-22.3,98-30.7
			c25.2-7.9,48-13.9,50.5-12.9c5.9,2,1599.7,2761.4,1597.8,2765.9c-1.5,3.5-96.5,83.7-494,414.8c-99.5,83.2-184.6,154.9-190.1,159.4
			c-8.9,8.9-8.9,10.4,1,82.7c54.9,387.1,61.4,770.2,20.3,1174.6c-95,935-453.4,1812.1-1041.9,2550.1
			c-377.2,473.2-853.8,881-1383,1183.5c-165.8,94.5-396.5,207.9-562.8,275.7c-22.8,8.9-42.1,20.3-43.1,24.3
			c-1.5,4.5-47.5,207.4-102,450.9c-54.9,243.5-101,447-102,451.9c-2.5,7.9-83.2,8.4-1600.7,8.4H4080.4L4077.5,23467.4z
			 M7011.7,23215c4-13.4,116.3-494.5,156.4-669.7c19.3-85.6,37.1-162.3,39.1-170.8c3.5-13.9,8.9-16.8,97.5-51
			c195-75.2,427.7-183.1,588.5-273.2c524.7-293,976.6-674.2,1346.3-1133.5c576.1-716.2,922.1-1584.9,996.9-2502.1
			c16.3-198.5,19.3-550.4,5.4-715.2c-12.9-158.4-37.1-344-65.3-501.4l-5.9-33.2l21.8-21.3c12.4-11.4,42.6-37.6,66.8-57.9
			c24.7-20.3,47-39.6,50.5-42.6c3-3,28.2-24.3,56.4-47c27.7-22.8,71.8-59.4,98-81.2c26.2-22.3,110.9-93.1,188.6-157.9
			c189.1-158.4,175.7-146,169.8-155.9c-2.5-4.5-302.9-524.2-666.7-1154.8c-398-689.5-665.2-1147.3-669.2-1147.3
			c-4,0-43.6,10.9-87.6,24.3s-88.1,26.7-97.5,29.2c-20.8,5.4-222.2,66.3-264.8,79.7c-16.3,5.4-49.5,15.3-74.2,22.8
			c-24.3,7.4-49,15.3-54.4,17.3c-5.4,2.5-19.8,6.9-32.2,9.9c-12.4,3-26.7,7.4-32.2,9.9c-5.4,2.5-25.2,8.9-44.5,13.9
			c-18.8,5.4-61.9,18.3-95,28.2c-59.9,18.3-60.4,18.3-72.8,9.4c-6.4-5.4-44.1-35.1-83.2-66.8c-119.8-97-341-256.9-354.9-256.9
			c-2.5,0-24.7-12.9-48.5-28.2c-231.2-149-519.2-296.5-783-400.9c-446.5-176.7-889.5-276.7-1393.8-314.3c-110.4-7.9-478.6-7.9-589,0
			c-644.9,48-1212.2,202.9-1764.6,481.6c-286.1,144-585.1,336.1-809.3,519.2c-18.8,15.8-37.1,29.2-40.6,30.2
			c-3,1-27.2,20.8-53.5,43.6l-48,41.1l-23.3-5c-22.3-4.9-54.4-15.8-213.3-75.2c-45-16.8-153.9-56.9-242.5-89.1
			c-88.6-32.2-197.5-72.3-242.5-88.6c-44.5-16.8-83.7-30.2-86.6-30.2c-3,0-305.4,520.2-672.7,1156.3l-667.7,1156.3l16.8,14.8
			c9.4,8.4,53.5,50,98.5,92.6c45,42.1,96,90.6,113.8,106.9c17.8,16.8,53.5,50.5,79.2,75.2c25.7,24.7,58.9,55.4,73.8,68.8
			c14.8,13.4,35.1,32.2,45.5,41.6c33.7,31.7,129.2,121.3,142.6,133.1c6.9,6.4,27.7,25.7,45.5,43.1l33.2,31.7l-6.9,35.6
			c-24.7,128.7-52,363.3-54,459.3c-0.5,39.6-3,146.5-4.9,237.6c-5.9,263.8,9.9,514.3,49.5,774.6
			c193,1272.6,911.2,2404.1,1979.9,3118.3c312.3,209.4,662.8,386.1,999.8,504.9c56.9,20.3,59.4,21.8,63.4,37.6
			c4.9,19.8,37.1,200.5,98,551.4c24.7,141.6,46,262.3,47.5,268.8l2.5,10.9h1335.4C6941.4,23223.4,7009.2,23222.9,7011.7,23215z"/>
		<path d="M5475.3,21513.8v-254.9l-20.8-2.5c-11.9-1-67.8-6.9-124.7-12.9c-501.9-50-1011.2-234.6-1443.8-522.7
			c-346-230.2-657.3-541.5-887.5-887.5c-155.4-233.1-292.5-513.8-378.7-775.6c-239.6-725.6-215.3-1504.7,68.8-2212.5
			c19.8-49,54.4-127.2,77.2-174.7c22.8-47.5,41.6-87.6,41.6-89.6c0-2-108.9-66.3-242.5-143.5c-133.1-76.7-245.5-142.1-250-145.5
			c-6.4-4.5,5.9-28.7,90.1-174.7c54-93.5,99.5-169.8,101-169.8c2,0,115.3,64.3,251.9,143.5c136.6,79.2,250,143.5,252.4,143.5
			c2,0,24.3-28.7,49-63.9c217.8-305.9,509.8-588.5,826.6-799.4c233.1-155.4,513.8-292.5,775.6-378.7
			c660.8-218.3,1362.7-218.3,2023.4,0c261.8,86.1,542.5,223.2,775.6,378.7c320.7,213.3,606.8,491,833,808.8
			c29.2,41.1,54,74.2,55.4,74.2c1,0,111.9-63.4,246-140.6c133.6-77.7,247-142.6,251.4-144c5.9-2.5,29.2,34.2,105.4,166.3
			c88.1,152,97,170.3,89.6,175.7c-4.5,3.5-117.3,68.8-250.5,145.5c-133.1,77.2-242,141.6-242,143.5c0,2,16.3,37.6,36.6,79.7
			c274.2,572.2,368.8,1261.2,259.9,1900.2c-75.7,446-246.5,876.6-497.4,1252.8c-198.5,298.5-453.9,567.7-744.4,786
			c-161.4,120.8-305.9,209.9-495,304.4c-349.9,174.7-718.2,282.6-1091.9,319.8c-56.9,5.9-112.9,11.9-124.2,12.9l-21.3,2.5v254.9
			v254.4h-198h-198V21513.8z M5475.3,20090.2v-574.2h-225.7c-131.2,0-224.7-2-223.7-4.5c4.9-14.4,655.3-1272.6,657.3-1272.6
			s651.9,1258.2,657.3,1272.6c1,2.5-97.5,4.5-233.6,4.5h-235.6v574.2v574.2h22.3c69.8,0,278.2-34.6,418.7-69.8
			c189.1-47,338.6-102.5,521.7-192.5c200-98.5,360.8-202.9,534.6-347c75.7-62.4,270.3-260.4,335.6-340.5
			c96.5-119.3,186.1-250,259.9-379.6c39.6-69.8,120.8-239.1,151.5-317.3c227.7-575.2,246.5-1214.2,52.5-1797.2
			c-44.1-132.7-123.2-322.7-134.6-322.7c-5.9,0-914.7,523.7-924.1,532.6c-5.9,4.9,10.4,36.6,102.5,196
			c60.4,104.4,109.9,191.6,109.9,194.5c0,5,3.5,5-113.8,9.9c-47.5,2-90.1,4-94,4.9c-4,0.5-48.5,3-99,4.5
			c-50.5,2-102.5,4.5-116.3,5.4c-13.4,1-57.9,3.5-99,4.9c-40.6,1.5-84.1,4-96.5,4.9c-12.4,1-61.4,3.5-108.9,5.4
			c-47.5,1.5-94,3.5-103,4.5c-8.9,0.5-54.4,3-101.5,4.9c-46.5,2-93.1,4-102.5,4.9c-9.4,1-59.4,3-111.4,4.9c-51.5,2-97.5,4-101.5,5
			c-18.8,3.5-183.1,8.4-183.1,5.4c0-2,140.6-222.2,312.8-489.5c171.8-267.3,346-538,387.1-601.4c66.8-103.9,74.7-114.8,80.7-106.9
			c3.5,4.9,56.9,96.5,118.8,203.4l112.4,194.5l14.8-8.9c8.4-4.9,217.3-125.7,464.8-268.3c247-142.6,448.9-261.3,448.9-263.8
			c0-7.4-73.3-105.9-133.1-179.2c-60.9-74.7-257.9-274.2-329.7-333.6c-108.9-90.6-229.2-175.7-349-248
			c-83.7-51-282.1-148.5-374.7-185.1c-626.6-247.5-1316.6-247.5-1943.3,0c-92.6,36.6-291,134.1-374.7,185.1
			c-119.8,72.3-241.1,157.9-349,248c-70.3,58.4-258.9,248-319.3,321.2c-56.4,67.8-135.6,172.7-133.1,175.7
			c1,1,203.4,117.8,449.9,259.9s454.9,262.8,463.8,267.8l15.3,9.4l107.9-186.6c59.4-103,110.4-191.1,113.8-196
			c4.9-7.9,9.4-3,36.1,39.6c16.8,26.7,60.9,95.5,98,152.5c36.6,57.4,92.1,143,122.8,190.6c52.5,82.2,222.7,347,267.3,415.8
			c11.4,17.8,61.4,95.5,111.4,173.2s102.5,159.4,116.8,181.7c14.8,22.8,26.7,43.6,26.7,46.5c0,3.5-11.9,4.5-38.1,2.5
			c-21.3-1.5-68.8-4-105.4-5.4c-36.6-1.5-83.7-3.5-103.9-5c-40.1-2.5-109.4-5.9-207.9-9.9c-34.2-1.5-78.7-3.5-99-4.9
			c-20.3-1.5-64.8-3.5-99-5c-62.9-2.5-119.8-5.4-206.4-9.9c-26.7-1.5-97.5-4.9-157.4-7.4c-59.9-2.5-130.7-5.9-156.9-7.4
			c-26.7-1.5-70.3-3.5-96.5-4.9c-120.3-5.9-159.9-8.9-159.9-11.9c0-1.5,52-93.6,115.8-203.4l115.8-200.5l-13.4-7.9
			c-43.1-27.2-916.2-529.1-920.2-529.1c-5.9,0-52,98-87.6,186.1c-144,355.4-209.9,761.8-185.6,1142.9
			c28.2,439.5,162.4,857.3,395,1232.5c51,82.2,128.7,190.1,197.5,275.2c65.3,80.2,259.9,278.2,335.6,340.5
			c173.7,144,334.6,248.5,534.6,347c183.1,90.1,332.6,145.5,521.7,192.5c142.6,35.6,336.1,68.3,412.8,69.3l28.2,0.5V20090.2z"/>
	</g>
</g>
</svg>
